<svg width="45" height="43" viewBox="0 0 45 43" fill="none" xmlns="http://www.w3.org/2000/svg">
<path d="M19.6875 29.5625C21.1648 29.5625 22.6277 29.2845 23.9927 28.7442C25.3576 28.204 26.5978 27.4121 27.6424 26.4139C28.6871 25.4157 29.5157 24.2306 30.0811 22.9264C30.6465 21.6221 30.9375 20.2242 30.9375 18.8125C30.9375 17.4008 30.6465 16.0029 30.0811 14.6987C29.5157 13.3944 28.6871 12.2093 27.6424 11.2111C26.5978 10.2129 25.3576 9.42104 23.9927 8.8808C22.6277 8.34056 21.1648 8.06251 19.6875 8.06251C16.7038 8.06251 13.8423 9.19509 11.7325 11.2111C9.62273 13.2271 8.43747 15.9614 8.43747 18.8125C8.43747 21.6636 9.62273 24.3979 11.7325 26.4139C13.8423 28.4299 16.7038 29.5625 19.6875 29.5625ZM31.5375 27.6024L38.25 34.0166C38.4289 34.182 38.5716 34.3798 38.6697 34.5984C38.7678 34.8171 38.8194 35.0522 38.8214 35.2901C38.8233 35.528 38.7757 35.7639 38.6813 35.984C38.5868 36.2042 38.4475 36.4041 38.2713 36.5722C38.0951 36.7403 37.8857 36.8732 37.6552 36.9631C37.4247 37.0531 37.1778 37.0982 36.9288 37.096C36.6798 37.0938 36.4339 37.0442 36.2052 36.9501C35.9765 36.8561 35.7697 36.7195 35.5968 36.5482L28.8843 30.1341C25.8702 32.3698 22.0777 33.4239 18.2789 33.0817C14.4801 32.7395 10.9605 31.0269 8.43663 28.2923C5.91277 25.5578 4.57438 22.007 4.69389 18.3627C4.8134 14.7184 6.38185 11.2546 9.07993 8.67641C11.778 6.09825 15.4029 4.59951 19.2167 4.48531C23.0305 4.37111 26.7465 5.65002 29.6082 8.0617C32.4699 10.4734 34.2623 13.8365 34.6203 17.4665C34.9784 21.0965 33.8753 24.7205 31.5356 27.6006L31.5375 27.6024Z" fill="#0B4040"/>
</svg>
